<svg width="169" height="221" viewBox="0 0 169 221" fill="none" xmlns="http://www.w3.org/2000/svg">
<circle cx="84.5" cy="84.5" r="81" fill="white" stroke="white" stroke-width="7"/>
<path d="M87 117C84 114.625 80.75 112.781 77.25 111.469C73.75 110.156 70.125 109.5 66.375 109.5C63.75 109.5 61.1719 109.844 58.6406 110.531C56.1094 111.219 53.6875 112.188 51.375 113.438C50.0625 114.125 48.7969 114.094 47.5781 113.344C46.3594 112.594 45.75 111.5 45.75 110.062V64.875C45.75 64.1875 45.9219 63.5312 46.2656 62.9062C46.6094 62.2812 47.125 61.8125 47.8125 61.5C50.6875 60 53.6875 58.875 56.8125 58.125C59.9375 57.375 63.125 57 66.375 57C70 57 73.5469 57.4688 77.0156 58.4062C80.4844 59.3438 83.8125 60.75 87 62.625V108C90.1875 106 93.5312 104.5 97.0312 103.5C100.531 102.5 104.062 102 107.625 102C109.875 102 112.078 102.188 114.234 102.562C116.391 102.938 118.562 103.5 120.75 104.25V59.25C121.688 59.5625 122.609 59.8906 123.516 60.2344C124.422 60.5781 125.312 61 126.188 61.5C126.875 61.8125 127.391 62.2812 127.734 62.9062C128.078 63.5312 128.25 64.1875 128.25 64.875V110.062C128.25 111.5 127.641 112.594 126.422 113.344C125.203 114.094 123.938 114.125 122.625 113.438C120.312 112.188 117.891 111.219 115.359 110.531C112.828 109.844 110.25 109.5 107.625 109.5C103.875 109.5 100.25 110.156 96.75 111.469C93.25 112.781 90 114.625 87 117ZM94.5 98.25V62.625L113.25 43.875V81.375L94.5 98.25ZM79.5 104.344V67.2188C77.4375 66.3438 75.2969 65.6719 73.0781 65.2031C70.8594 64.7344 68.625 64.5 66.375 64.5C64.0625 64.5 61.8125 64.7188 59.625 65.1562C57.4375 65.5938 55.3125 66.25 53.25 67.125V104.344C55.4375 103.531 57.6094 102.938 59.7656 102.562C61.9219 102.188 64.125 102 66.375 102C68.625 102 70.8281 102.188 72.9844 102.562C75.1406 102.938 77.3125 103.531 79.5 104.344Z" fill="#0D011A"/>
<path d="M84.6816 17.5C123.659 17.5001 154.863 47.4848 154.863 84C154.863 120.515 123.659 150.5 84.6816 150.5C45.7044 150.5 14.5 120.515 14.5 84C14.5 47.4847 45.7044 17.5 84.6816 17.5Z" stroke="#0D011A" stroke-width="9"/>
<path d="M10.26 212.396C8.124 212.396 6.264 212.072 4.68 211.424C3.12 210.776 1.692 209.756 0.396 208.364L4.464 204.26C5.352 205.196 6.3 205.916 7.308 206.42C8.316 206.9 9.456 207.14 10.728 207.14C11.808 207.14 12.636 206.96 13.212 206.6C13.812 206.216 14.112 205.7 14.112 205.052C14.112 204.452 13.896 203.96 13.464 203.576C13.032 203.168 12.456 202.82 11.736 202.532C11.04 202.22 10.26 201.932 9.396 201.668C8.556 201.38 7.704 201.044 6.84 200.66C6 200.252 5.22 199.76 4.5 199.184C3.804 198.608 3.24 197.888 2.808 197.024C2.376 196.16 2.16 195.092 2.16 193.82C2.16 192.188 2.544 190.796 3.312 189.644C4.104 188.492 5.196 187.604 6.588 186.98C7.98 186.356 9.6 186.044 11.448 186.044C13.296 186.044 15 186.356 16.56 186.98C18.12 187.604 19.404 188.468 20.412 189.572L16.308 193.64C15.54 192.872 14.76 192.296 13.968 191.912C13.176 191.528 12.312 191.336 11.376 191.336C10.488 191.336 9.792 191.492 9.288 191.804C8.784 192.116 8.532 192.56 8.532 193.136C8.532 193.712 8.748 194.18 9.18 194.54C9.612 194.9 10.176 195.224 10.872 195.512C11.592 195.776 12.372 196.052 13.212 196.34C14.076 196.628 14.928 196.964 15.768 197.348C16.608 197.732 17.376 198.224 18.072 198.824C18.792 199.424 19.368 200.18 19.8 201.092C20.232 202.004 20.448 203.108 20.448 204.404C20.448 206.948 19.548 208.916 17.748 210.308C15.972 211.7 13.476 212.396 10.26 212.396ZM25.6933 212V187.124H31.9573V212H25.6933ZM21.8053 199.616V194.396H35.8453V199.616H21.8053ZM46.1109 212.396C44.4549 212.396 42.9789 212.072 41.6829 211.424C40.4109 210.752 39.4029 209.828 38.6589 208.652C37.9389 207.452 37.5789 206.096 37.5789 204.584V194.396H43.8429V204.584C43.8429 205.064 43.9389 205.484 44.1309 205.844C44.3229 206.204 44.5869 206.48 44.9229 206.672C45.2589 206.864 45.6549 206.96 46.1109 206.96C46.7829 206.96 47.3229 206.744 47.7309 206.312C48.1629 205.88 48.3789 205.304 48.3789 204.584V194.396H54.6429V204.584C54.6429 206.12 54.2829 207.476 53.5629 208.652C52.8429 209.828 51.8349 210.752 50.5389 211.424C49.2669 212.072 47.7909 212.396 46.1109 212.396ZM65.3999 212.36C63.6959 212.36 62.1959 211.964 60.8999 211.172C59.6039 210.38 58.5839 209.3 57.8399 207.932C57.1199 206.54 56.7599 204.968 56.7599 203.216C56.7599 201.44 57.1199 199.856 57.8399 198.464C58.5839 197.072 59.5919 195.992 60.8639 195.224C62.1599 194.432 63.6719 194.036 65.3999 194.036C66.5039 194.036 67.5359 194.24 68.4959 194.648C69.4559 195.032 70.2599 195.584 70.9079 196.304C71.5559 197.024 71.9399 197.84 72.0599 198.752V207.356C71.9399 208.268 71.5559 209.108 70.9079 209.876C70.2599 210.644 69.4559 211.256 68.4959 211.712C67.5359 212.144 66.5039 212.36 65.3999 212.36ZM66.5159 206.78C67.2119 206.78 67.8119 206.636 68.3159 206.348C68.8199 206.036 69.2159 205.616 69.5039 205.088C69.8159 204.536 69.9719 203.9 69.9719 203.18C69.9719 202.484 69.8279 201.872 69.5399 201.344C69.2519 200.816 68.8439 200.396 68.3159 200.084C67.8119 199.772 67.2239 199.616 66.5519 199.616C65.8799 199.616 65.2799 199.772 64.7519 200.084C64.2479 200.396 63.8399 200.828 63.5279 201.38C63.2399 201.908 63.0959 202.508 63.0959 203.18C63.0959 203.876 63.2399 204.5 63.5279 205.052C63.8159 205.58 64.2239 206 64.7519 206.312C65.2799 206.624 65.8679 206.78 66.5159 206.78ZM75.8759 212H69.7199V207.284L70.6199 202.964L69.6119 198.716V185.756H75.8759V212ZM84.7873 212.036L77.7313 194.396H84.4273L88.7473 208.904H86.1193L90.4753 194.396H97.1713L89.9353 212.036H84.7873ZM80.6113 219.452L85.8313 207.968L89.9353 212.036L86.9113 219.452H80.6113ZM99.4399 212V186.476H105.884V212H99.4399ZM115.064 212V186.476H121.508V212H115.064ZM103.112 201.632V196.232H117.404V201.632H103.112ZM133.685 212.396C132.029 212.396 130.553 212.072 129.257 211.424C127.985 210.752 126.977 209.828 126.233 208.652C125.513 207.452 125.153 206.096 125.153 204.584V194.396H131.417V204.584C131.417 205.064 131.513 205.484 131.705 205.844C131.897 206.204 132.161 206.48 132.497 206.672C132.833 206.864 133.229 206.96 133.685 206.96C134.357 206.96 134.897 206.744 135.305 206.312C135.737 205.88 135.953 205.304 135.953 204.584V194.396H142.217V204.584C142.217 206.12 141.857 207.476 141.137 208.652C140.417 209.828 139.409 210.752 138.113 211.424C136.841 212.072 135.365 212.396 133.685 212.396ZM155.89 212.36C154.762 212.36 153.718 212.144 152.758 211.712C151.798 211.256 151.006 210.644 150.382 209.876C149.758 209.108 149.374 208.268 149.23 207.356V198.752C149.374 197.84 149.758 197.024 150.382 196.304C151.03 195.584 151.834 195.032 152.794 194.648C153.754 194.24 154.786 194.036 155.89 194.036C157.594 194.036 159.094 194.432 160.39 195.224C161.686 195.992 162.694 197.072 163.414 198.464C164.158 199.856 164.53 201.44 164.53 203.216C164.53 204.968 164.158 206.54 163.414 207.932C162.694 209.3 161.686 210.38 160.39 211.172C159.094 211.964 157.594 212.36 155.89 212.36ZM145.414 212V185.756H151.678V198.716L150.634 202.964L151.534 207.284V212H145.414ZM154.774 206.78C155.446 206.78 156.034 206.624 156.538 206.312C157.066 206 157.474 205.58 157.762 205.052C158.05 204.5 158.194 203.876 158.194 203.18C158.194 202.508 158.05 201.908 157.762 201.38C157.474 200.828 157.066 200.396 156.538 200.084C156.01 199.772 155.41 199.616 154.738 199.616C154.066 199.616 153.466 199.772 152.938 200.084C152.434 200.396 152.038 200.816 151.75 201.344C151.462 201.872 151.318 202.484 151.318 203.18C151.318 203.9 151.462 204.536 151.75 205.088C152.038 205.616 152.446 206.036 152.974 206.348C153.502 206.636 154.102 206.78 154.774 206.78Z" fill="white"/>
</svg>
